<svg xmlns="http://www.w3.org/2000/svg" width="150" height="45" viewBox="0 0 150 45">
    <g fill="none" fill-rule="evenodd">
        <path fill="#2D3C5D" d="M22.71 35.668c-.297 0-.495-.162-.593-.491l-4.595-15.171h-.098l-4.642 15.17c-.098.33-.298.492-.593.492H8.137c-.295 0-.495-.162-.593-.491L.035 12.42c-.1-.329.016-.493.344-.493h4.744c.329 0 .542.164.64.493l4.597 15.662h.1l4.543-15.663c.098-.328.312-.492.641-.492h3.558c.33 0 .544.164.643.492l4.84 15.663h.1l4.347-15.663c.098-.328.313-.492.644-.492h4.74c.33 0 .446.164.346.492l-7.509 22.756c-.098.329-.295.493-.593.493h-4.05zm16.47 0c-.33 0-.492-.162-.492-.491V12.42c0-.329.163-.493.491-.493h4.547c.329 0 .493.164.493.493v22.757c0 .329-.164.491-.493.491H39.18zm0-28.225c-.33 0-.492-.162-.492-.491V2.666c0-.327.163-.493.491-.493h4.547c.329 0 .493.166.493.493v4.286c0 .33-.164.495-.493.495H39.18v-.004zm24.41 27.734V21.48c0-1.541-.379-2.79-1.138-3.742-.756-.953-1.875-1.428-3.358-1.428-1.448 0-2.569.476-3.359 1.428-.79.953-1.185 2.2-1.185 3.742v13.696c0 .329-.166.491-.495.491h-4.543c-.33 0-.495-.162-.495-.491V12.42c0-.329.164-.493.493-.493h4.545c.329 0 .494.164.494.493v1.722c.577-.755 1.36-1.403 2.397-1.946 1.036-.543 2.346-.812 3.926-.812 1.285 0 2.43.222 3.434.664a7.715 7.715 0 0 1 2.594 1.848 8.024 8.024 0 0 1 1.654 2.782c.378 1.068.569 2.243.569 3.523v14.974c0 .329-.165.493-.494.493h-4.545c-.33 0-.495-.162-.495-.491zm10.833.491c-.33 0-.494-.162-.494-.491V17.053c0-.198-.098-.297-.296-.297H72.05c-.329 0-.493-.164-.493-.491V12.43c0-.329.164-.492.493-.492h1.58c.198 0 .297-.1.297-.296v-3.04c0-2.79.667-4.812 2.003-6.06 1.332-1.246 3.3-1.872 5.902-1.872h2.173c.33 0 .495.165.495.494v3.94c0 .328-.166.494-.495.494h-1.53c-.626 0-1.138.04-1.532.121-.395.083-.7.24-.914.47-.215.23-.363.525-.444.886-.083.361-.125.836-.125 1.428v3.139c0 .196.099.296.298.296h2.74c.328 0 .493.163.493.492v3.834c0 .327-.163.491-.492.491h-2.74c-.199 0-.299.099-.299.297v18.124c0 .329-.164.491-.493.491h-4.545zm56.832 0c-.33 0-.495-.162-.495-.491V31.58a.96.96 0 0 1 .148-.491l12.155-14.238v-.099h-11.167c-.33 0-.495-.164-.495-.491V12.42c0-.329.165-.493.495-.493h17.19c.33 0 .494.163.494.493v3.842a.79.79 0 0 1-.149.491l-12.001 13.99v.1h11.658c.33 0 .494.162.494.49v3.844c0 .329-.165.491-.495.491h-17.832zm-35.96 2.895a5.03 5.03 0 0 1-3.554-1.468 5.005 5.005 0 0 1-1.473-3.542 5.01 5.01 0 0 1 1.473-3.544 5.032 5.032 0 0 1 7.106 0 5.016 5.016 0 0 1 1.472 3.544 5.015 5.015 0 0 1-5.026 5.01h.001zm-.002-15.598c-5.866 0-10.62 4.738-10.62 10.588 0 5.847 4.754 10.588 10.62 10.588 5.864 0 10.618-4.74 10.618-10.588 0-5.85-4.754-10.588-10.618-10.588zm22.38 15.596a5.028 5.028 0 0 1-3.553-1.466 5 5 0 0 1 0-7.086 5.031 5.031 0 0 1 7.105 0 5 5 0 0 1 .012 7.072l-.012.014a5.031 5.031 0 0 1-3.553 1.468v-.002zm0-15.596c-5.866 0-10.619 4.738-10.619 10.588 0 5.847 4.753 10.588 10.618 10.588 5.866 0 10.62-4.742 10.62-10.59s-4.754-10.586-10.618-10.586h-.002z"/>
        <path fill="#F9AE17" d="M89.009 19.572l-2.385-2.883a.59.59 0 0 1 .078-.834l.008-.006a32.111 32.111 0 0 1 19.88-6.909 32.123 32.123 0 0 1 19.665 6.739.594.594 0 0 1 .092.839l-2.36 2.902a.582.582 0 0 1-.812.087 27.191 27.191 0 0 0-16.585-5.656 27.15 27.15 0 0 0-16.768 5.803.584.584 0 0 1-.813-.082"/>
    </g>
</svg>
